<svg width="77" height="67" viewBox="0 0 77 67" fill="none" xmlns="http://www.w3.org/2000/svg">
<path d="M68.1963 7.968C59.637 -0.590164 46.3553 -0.590164 38.0911 7.968C29.827 -0.295054 16.2501 -0.295054 7.98594 7.968C0.0169163 15.936 -0.573381 28.3305 6.80534 36.8887C10.6423 41.3153 14.4792 45.1518 18.6113 48.9882C20.3822 48.1029 22.7434 47.2175 24.8094 46.0371C24.8094 46.0371 33.6639 42.2007 39.2717 33.9376C32.1882 38.9545 25.3997 41.0202 22.4482 41.6105C21.2676 37.1838 22.1531 32.4621 25.3997 29.2159C29.827 24.7892 42.5184 23.6088 46.9456 16.5262C47.5359 15.6408 48.7165 15.6408 49.3068 16.5262C51.3728 21.2479 54.9146 32.4621 47.2408 43.9713C43.4038 49.8735 34.8445 52.5295 28.6464 49.2833C26.5803 50.7588 24.5143 52.2344 23.0385 53.1197C27.7609 57.2512 32.7785 61.0877 38.0911 64.629C50.1922 56.9561 60.5225 47.5126 69.6721 36.8887C76.4605 28.3305 75.8702 15.936 68.1963 7.968Z" fill="#4CA6FD"/>
<path d="M37.7968 66.3996L36.9114 65.8094C31.5987 62.268 26.5812 58.4316 21.5637 54.3001L20.0879 52.8246L21.8588 51.6441C23.3345 50.7588 25.4006 49.2832 27.4666 47.8077L28.3521 47.2175L29.2375 47.5126C34.5502 50.4637 42.5192 48.1028 45.7659 42.7908C52.5543 32.462 50.1931 22.4283 47.8319 17.1163C44.8804 21.543 39.2726 23.9038 34.2551 25.6745C31.0084 26.8549 27.7618 28.3305 26.286 29.806C23.9248 32.1669 22.7442 35.7082 23.3345 39.2495C25.9909 38.6593 31.8939 36.5935 38.092 32.1669L44.8804 27.4452L40.158 34.2327C34.2551 42.7908 25.4006 46.6273 25.1054 46.9224C23.9248 47.5126 22.4491 48.3979 21.2685 48.9881C20.3831 49.2832 19.7928 49.5783 19.2025 49.8735L18.317 50.4637L17.4316 49.8735C12.7092 45.4468 9.1674 41.6104 5.62561 37.774C-2.34342 28.6256 -1.75312 15.3457 6.8062 6.78751C10.9383 2.65598 16.8413 0.295109 23.0394 0.295109C28.6472 0.295109 33.9599 2.36087 38.092 5.90218C42.2241 2.06576 47.2416 0 52.8494 0C59.0476 0 64.6554 2.36087 69.3778 6.78751C77.642 15.3457 78.2323 28.6256 70.8535 37.774C60.8185 49.2832 50.4883 58.4316 38.9774 65.8094L37.7968 66.3996ZM25.4006 53.1197C29.5327 56.661 33.6648 59.6121 38.092 62.5632C49.0125 55.4805 59.0476 46.6273 68.4923 35.7082C74.6905 27.7403 74.1002 16.231 67.0166 8.85328C63.1797 5.01686 58.1621 2.95109 52.8494 2.95109C47.5368 2.95109 42.8144 5.01686 39.2726 8.85328L38.092 10.0337L36.9114 8.85328C33.0745 5.01686 28.3521 2.95109 23.0394 2.95109C17.7267 3.2462 12.7092 5.31197 8.87225 8.85328C1.49352 16.231 0.903223 27.7403 7.69165 35.7082C10.9383 39.5446 14.4801 43.0859 18.6122 46.9224C18.9073 46.6273 19.4976 46.6273 20.0879 46.3321C21.2685 45.7419 22.7443 45.1517 23.9248 44.5615C23.9248 44.5615 27.4666 43.0859 31.3036 39.8397C26.8763 41.9055 23.3345 42.4957 22.4491 42.7908L20.9734 43.0859L20.6782 41.6104C19.2025 36.2984 20.6782 31.2816 23.9248 27.7403C25.9909 25.6745 29.5327 24.199 33.0745 23.0185C37.7968 21.2479 43.1095 19.1821 45.1756 15.3457C46.3562 13.575 49.0125 13.575 49.898 15.3457C52.5543 21.2479 55.5058 32.7571 47.8319 44.5615C43.6998 51.0539 34.8454 53.7099 28.0569 50.7588C27.4666 51.6441 26.286 52.5294 25.4006 53.1197Z" fill="#232323"/>
</svg>
