<svg width="66" height="68" viewBox="0 0 66 68" fill="none" xmlns="http://www.w3.org/2000/svg">
<path d="M63.588 47.1311C65.1891 48.0553 65.6466 49.6725 64.9604 50.5966C64.2742 51.7518 62.4443 51.7518 61.3006 49.4415C60.6144 48.0553 59.242 46.9001 57.8696 46.207C58.0984 46.207 61.3006 45.7449 63.588 47.1311Z" fill="#4CA6FD"/>
<path d="M11.6657 38.5828C9.37838 40.2 9.14965 43.2035 10.5221 44.1276C12.1232 45.5138 14.868 45.2828 16.0117 41.5862C16.6979 39.2759 18.0703 37.1966 20.1289 35.8104C19.9001 35.8104 14.868 36.2724 11.6657 38.5828Z" fill="#4CA6FD"/>
<path d="M14.1816 66.3069C15.0966 54.2931 26.3045 48.2862 29.9643 48.5172L37.0551 51.7517L36.5976 55.2172L41.6297 57.9896V60.7621L50.3216 59.1448L48.7205 55.2172L52.609 50.5965C56.9549 53.1379 61.5296 58.6827 61.9871 66.3069H14.1816Z" fill="#4CA6FD"/>
<path d="M44.8314 29.8035H41.8578C41.4003 29.8035 40.9429 29.3414 40.9429 28.8793C40.9429 28.4173 41.4003 27.9552 41.8578 27.9552H44.8314C45.2888 27.9552 45.7463 28.4173 45.7463 28.8793C45.7463 29.3414 45.2888 29.8035 44.8314 29.8035Z" fill="#232323"/>
<path d="M34.0813 29.8035H31.1078C30.6503 29.8035 30.1929 29.3414 30.1929 28.8793C30.1929 28.4173 30.6503 27.9552 31.1078 27.9552H34.0813C34.5388 27.9552 34.9963 28.4173 34.9963 28.8793C34.9963 29.3414 34.5388 29.8035 34.0813 29.8035Z" fill="#232323"/>
<path d="M57.1838 41.3552C56.0401 39.969 55.3539 38.3518 54.6677 36.5035L54.439 36.0414C53.7528 34.1932 53.2953 32.5759 53.0666 31.4207C55.8114 24.4897 54.2102 16.8656 51.2367 12.7069C49.8643 10.8587 48.2631 9.70349 46.4333 9.70349C45.5183 8.08625 43.4597 6.93108 41.1724 6.46901C38.6563 5.77591 32.023 5.0828 25.6185 11.5518C19.9001 17.3276 21.73 25.8759 23.5599 30.2656V30.9587C23.5599 33.038 23.1024 35.1173 22.4162 36.9656C21.73 38.5828 21.0438 40.4311 19.9001 41.8173C19.6714 42.0483 19.6714 42.5104 19.6714 42.7414C19.6714 42.9725 19.9001 43.4345 20.1289 43.4345C22.6449 44.8207 25.3897 45.5138 28.1345 45.7449C28.8207 45.7449 29.2782 45.2828 29.2782 44.5897C29.2782 44.3587 29.2782 43.8966 29.0495 43.6656C28.8207 43.4345 28.592 43.2035 28.3633 43.2035C26.3047 43.2035 24.2461 42.7414 22.4162 41.8173C23.3311 40.4311 24.0173 39.0449 24.4748 37.4276C24.7035 36.9656 24.9323 36.2725 24.9323 35.8104C25.6185 37.6587 26.7621 39.5069 28.1345 41.1242C28.592 41.5863 29.2782 41.5863 29.7357 41.3552C29.9644 41.1242 30.1932 40.8932 30.1932 40.6621C30.1932 40.4311 30.1932 39.969 29.9644 39.738C27.6771 36.9656 26.3047 33.7311 25.8472 30.2656C26.9909 29.8035 27.6771 28.8794 28.3633 27.9552C29.2782 26.8 30.4219 25.4138 32.7092 23.7966C33.8529 23.1035 35.6828 22.4104 37.5126 21.9483C41.1724 20.7932 45.2896 19.638 46.4333 15.4794C46.662 14.7863 46.2045 14.3242 45.7471 14.0931C45.0609 13.8621 44.6034 14.3242 44.3747 14.7863C43.6885 17.5587 40.2575 18.4828 37.0552 19.638C34.9966 20.3311 33.1667 20.7932 31.7943 21.9483C29.2782 23.7966 27.9058 25.4138 26.9909 26.569C26.3047 27.2621 25.8472 27.9552 25.3897 28.1863C23.7886 23.7966 23.3311 17.0966 27.4483 13.169C33.1667 7.39315 38.6563 8.08625 40.7149 8.77936C43.0023 9.47246 44.3747 10.6276 44.6034 11.0897C44.8321 11.5518 45.2896 11.7828 45.7471 11.7828C46.8907 11.7828 48.0344 12.4759 49.1781 13.8621C51.2367 16.4035 52.6091 21.2552 51.6942 26.569C50.7792 24.2587 49.4068 22.1794 47.8057 20.3311C47.5769 20.1 47.3482 19.869 47.1195 19.869C46.8907 19.869 46.4333 19.869 46.2045 20.1C45.9758 20.3311 45.7471 20.5621 45.7471 21.0242C45.7471 21.2552 45.7471 21.7173 45.9758 21.9483C48.2631 24.4897 49.8643 27.4932 50.3218 30.7276C50.3218 30.9587 50.3218 30.9587 50.3218 31.1897C49.8643 34.1932 48.4919 36.9656 46.8907 39.5069C46.4333 39.969 46.662 40.6621 47.1195 41.1242C47.5769 41.5863 48.2631 41.3552 48.7206 40.8932C49.8643 39.2759 50.7792 37.6587 51.4654 35.8104C51.6942 36.2725 51.6942 36.5035 51.9229 36.9656L52.1516 37.4276C52.6091 38.8138 53.2953 40.4311 54.2102 41.5863C53.7528 41.8173 53.0666 41.8173 52.3804 42.0483C51.9229 42.0483 51.4654 42.2794 51.008 42.5104C50.7792 42.5104 50.5505 42.7414 50.3218 42.9725C50.093 43.2035 50.093 43.4345 50.093 43.8966C50.3217 44.3587 50.7792 44.8207 51.2367 44.8207H51.4654C51.9229 44.5897 52.3804 44.5897 52.8378 44.5897C54.2102 44.3587 55.3539 43.8966 56.4976 43.4345C56.7263 43.2035 56.955 42.9725 57.1838 42.7414C57.4125 41.8173 57.1838 41.5863 57.1838 41.3552Z" fill="#232323" stroke="black" stroke-width="0.6"/>
<path d="M63.588 65.3828C62.9018 56.8345 57.4122 51.9828 53.9812 49.6724C53.9812 49.4414 53.7525 49.2104 53.7525 48.9793L45.2893 41.1241C45.9755 39.969 46.2043 39.0448 46.2043 39.0448C46.8905 36.7345 46.433 32.8069 44.3744 31.6517C43.2307 30.9586 41.1721 31.1897 39.571 31.6517C38.4273 32.1138 37.5124 32.5759 37.2836 33.269L34.9963 39.0448C34.7676 39.2759 34.7676 39.7379 34.9963 39.969C35.225 40.2 35.225 40.431 35.6825 40.6621C35.9112 40.8931 36.3687 40.8931 36.5974 40.6621C36.8262 40.431 37.0549 40.431 37.2836 39.969L39.571 34.4241C39.571 34.4241 39.7997 34.1931 40.4859 33.9621C41.8583 33.5 43.2307 33.5 43.2307 33.731C43.9169 34.1931 44.3744 36.7345 43.9169 38.3517C43.002 40.431 40.2572 46.2069 37.9698 47.3621C36.8262 47.8242 36.14 48.7483 35.6825 49.9035L32.7089 48.2862C33.1664 47.3621 33.3951 46.4379 32.9377 45.5138C32.7089 45.0517 33.1664 41.5862 33.6239 40.2C33.6239 39.7379 34.3101 38.3517 34.7676 37.4276C34.9963 37.1966 34.9963 36.7345 34.7676 36.5035C34.5388 36.2724 34.5388 36.0414 34.0813 35.8104C33.3951 35.5793 32.9377 35.8104 32.4802 36.5035C32.2515 37.1966 31.3365 39.0448 31.1078 39.7379C31.1078 39.7379 29.7354 45.2828 30.6503 46.669C30.6503 46.669 30.6503 46.9 30.4216 47.3621H30.1929C29.7354 47.131 29.2779 47.131 28.8205 47.5931C23.7883 48.0552 13.724 54.0621 12.8091 65.8448V66.0759C12.8091 66.0759 12.8091 66.0759 12.8091 66.3069C13.2666 66.538 13.724 67 14.4102 67H62.6731C63.3593 67 63.8168 66.5379 63.8168 65.8448C63.8168 65.8448 63.8168 65.6138 63.588 65.3828ZM27.2193 50.1345L17.6125 64.6897H15.5539C16.6976 56.1414 23.3308 51.5207 27.2193 50.1345ZM35.6825 52.2138L30.1929 64.6897H20.3573L30.4216 49.4414L35.6825 52.2138ZM40.7146 61.4552C40.9434 61.6862 41.4008 61.6862 41.6296 61.6862L50.7789 59.8379C51.2364 59.8379 51.4651 59.6069 51.6939 59.1448C51.9226 58.9138 51.9226 58.4517 51.6939 57.9897L50.3215 55.4483L53.0663 51.7517C55.8111 53.6 60.3858 57.5276 61.3007 64.4586H32.7089L36.8262 55.4483L40.4859 57.9897V60.069C40.2572 60.7621 40.4859 61.2242 40.7146 61.4552ZM37.9698 50.8276C38.1986 50.1345 38.4273 49.6724 39.1135 49.4414C40.7146 48.5173 42.3158 46.669 44.1456 43.4345L51.4651 50.3655L49.1778 53.6L45.0606 46.2069C44.8318 45.7448 44.1456 45.5138 43.4594 45.7448C43.002 45.9759 42.7732 46.669 43.002 47.3621L47.8054 56.1414C47.8054 56.3724 48.0341 56.3724 48.0341 56.3724L48.7203 57.9897L42.3158 59.1448V51.5207C42.3158 50.8276 41.8583 50.3655 41.1721 50.3655C40.4859 50.3655 40.0284 50.8276 40.0284 51.5207V55.4483L37.5124 53.6L38.1986 52.2138C38.4273 51.7517 38.4273 51.2897 37.9698 50.8276Z" fill="#232323" stroke="black" stroke-width="0.6"/>
<path d="M10.5218 0C4.80342 0 0 4.85173 0 10.6276C0 16.4035 4.80342 21.2552 10.5218 21.2552C16.2401 21.2552 21.0435 16.4035 21.0435 10.6276C21.0435 4.85173 16.2401 0 10.5218 0ZM2.28734 10.6276C2.28734 9.01035 2.74481 7.62414 3.43101 6.23793L15.0964 17.3276C13.724 18.2517 12.1229 18.9448 10.5218 18.9448C5.94709 18.9448 2.28734 15.2483 2.28734 10.6276ZM16.9263 15.7103L5.03215 4.38966C6.40455 3.23448 8.46316 2.31035 10.5218 2.31035C15.0964 2.31035 18.7562 6.0069 18.7562 10.6276C18.7562 12.4759 18.07 14.3241 16.9263 15.7103Z" fill="#232323"/>
</svg>
