<svg width="73" height="69" viewBox="0 0 73 69" fill="none" xmlns="http://www.w3.org/2000/svg">
<path d="M20.052 8.27938C27.258 9.2193 27.8847 15.7987 27.8847 15.7987C27.8847 15.7987 28.198 24.5712 28.8246 30.8373C29.4512 37.1034 33.8374 39.9232 40.7302 45.2494C47.6229 50.5756 41.9834 59.6614 41.9834 59.6614C41.9834 59.6614 39.7902 64.6743 31.0177 63.1078C22.2452 61.5412 13.1593 48.6957 10.0263 40.2365C6.89321 31.7773 6.89321 24.2579 6.57991 18.9318C6.2666 13.6056 9.71296 6.39955 20.052 8.27938Z" fill="#4CA6FD"/>
<path d="M17.8582 23.318C20.9913 23.318 23.4977 20.8116 23.4977 17.6786C23.4977 14.5455 20.9913 12.0391 17.8582 12.0391C14.7252 12.0391 12.2188 14.5455 12.2188 17.6786C12.2188 20.8116 14.7252 23.318 17.8582 23.318ZM15.0385 17.6786C15.0385 16.4253 16.2917 14.8588 17.8582 14.8588C19.1115 14.8588 20.678 16.112 20.678 17.6786C20.678 19.2451 19.4248 20.4983 17.8582 20.4983C16.2917 20.4983 15.0385 18.9318 15.0385 17.6786Z" fill="#232323"/>
<path d="M33.5233 47.7558C30.3902 47.7558 27.8838 50.2622 27.8838 53.3953C27.8838 56.5283 30.3902 59.0348 33.5233 59.0348C36.6563 59.0348 39.1628 56.5283 39.1628 53.3953C39.1628 50.2622 36.6563 47.7558 33.5233 47.7558ZM36.343 53.3953C36.343 54.9618 35.0898 56.215 33.5233 56.215C31.9568 56.215 30.7035 54.9618 30.7035 53.3953C30.7035 51.8288 31.9568 50.5755 33.5233 50.5755C35.0898 50.5755 36.343 51.5155 36.343 53.3953Z" fill="#232323"/>
<path d="M22.2442 43.6829C20.0511 43.6829 18.7979 45.2494 18.7979 47.1292C18.7979 49.009 20.3644 50.5756 22.2442 50.5756C23.8107 50.5756 25.6906 49.009 25.6906 47.1292C25.6906 45.2494 24.124 43.6829 22.2442 43.6829ZM22.8708 47.1292C22.8708 47.4425 22.5575 47.7558 22.2442 47.7558C21.9309 47.7558 21.6176 47.4425 21.6176 47.1292C21.6176 46.8159 21.9309 46.5026 22.2442 46.5026C22.5575 46.5026 22.8708 46.8159 22.8708 47.1292Z" fill="#232323"/>
<path d="M20.0517 29.5842C20.0517 27.0777 18.1718 24.8846 15.3521 24.8846C12.5323 24.8846 10.9658 26.7644 10.9658 29.5842C10.9658 32.4039 12.8457 34.2837 15.6654 34.2837C18.4851 34.2837 20.0517 32.0906 20.0517 29.5842ZM17.2319 29.2709C17.2319 30.2108 16.292 30.8374 15.6654 30.8374C15.0388 30.8374 13.7856 29.8975 13.7856 29.2709C13.7856 28.6442 14.4122 27.391 15.6654 27.391C16.9186 27.391 17.2319 28.3309 17.2319 29.2709Z" fill="#232323"/>
<path d="M49.5022 45.5627L44.4893 47.1292C43.2361 44.6228 41.6696 42.743 39.4764 41.803L42.2962 38.67L40.103 36.4769L36.6567 40.2365C33.8369 38.3567 31.6438 35.5369 30.3906 32.0906L34.7769 30.2108L33.8369 27.391L29.764 29.2708C29.1374 26.1378 29.4507 23.318 29.764 21.4382L34.4636 22.0648L34.7769 19.2451L30.3906 18.6185C30.7039 16.112 30.0773 13.9189 29.1374 11.7258L33.8369 7.65279L31.9571 5.45966L31.6438 5.77296C31.6438 5.77296 28.8241 7.9661 27.5708 9.53262C26.0043 7.65279 24.1245 6.39957 21.9314 5.77296L23.4979 1.38669L20.6781 0.446777L18.7983 5.14635C18.485 5.14635 18.485 5.14635 18.1717 5.14635C15.9786 5.14635 13.4721 5.77296 11.5923 7.02618L8.45924 2.95322L5.9528 4.83305L9.39915 9.21932C7.83263 10.4725 6.89271 12.3524 6.2661 14.5455C6.2661 15.1721 5.9528 15.4854 5.9528 16.112L1.25322 14.8588L0.313305 17.6786L5.32619 18.9318C5.32619 21.4382 5.01288 23.9447 5.32619 26.7644C2.19314 27.391 0.939915 27.7043 0.313305 27.7043C0 28.0176 0 28.0176 0 28.0176L0.62661 30.5241L5.32619 29.5841C5.63949 32.0906 5.9528 34.597 6.57941 37.1035L1.56653 39.6099L2.50644 42.1163L7.20602 39.9232C7.83263 42.1163 8.77254 44.6228 10.0258 46.5026L6.2661 47.7558L7.20602 50.5756L11.9056 49.0091C13.4721 51.2022 15.0386 53.3953 16.6052 55.2752L13.1588 58.7215L15.3519 60.9146L18.7983 57.4683C20.6781 59.0348 22.2447 60.288 24.1245 61.5413L22.2447 66.2408L24.7511 67.8074L26.9442 63.1078C26.9442 63.1078 27.2575 63.1078 27.2575 63.4211C27.5708 63.7344 28.1975 64.0477 28.5108 64.0477C30.0773 64.6743 31.6438 64.9876 33.5236 64.9876C34.1502 64.9876 34.4636 64.9876 35.0902 64.9876L36.3434 68.434L39.1631 67.8074L37.9099 64.0477C40.103 63.1078 41.9829 61.8546 43.2361 59.9747L47.6224 62.4812L49.1889 59.9747L44.8026 57.4683C45.7425 55.2752 46.0558 52.4554 45.4292 49.949L50.1288 48.3824L49.5022 45.5627ZM42.2962 56.8417C40.7297 59.9747 37.5966 62.1679 34.1502 62.1679C32.5837 62.1679 31.3305 61.5413 30.0773 61.228C6.89271 50.2623 6.2661 26.4511 9.08585 15.1721C10.0258 11.0991 13.7854 8.2794 18.1717 8.2794C18.7983 8.2794 19.7382 8.2794 20.0515 8.59271C25.0644 9.53262 28.1975 14.5455 26.9442 19.5584V19.8717C26.0043 26.7644 26.0043 38.67 37.5966 44.3095C39.7897 45.2494 41.6696 47.1292 42.2962 49.6357C43.2361 51.8288 43.2361 54.3352 42.2962 56.8417Z" fill="#232323"/>
<path d="M58.5883 8.90601C50.7557 8.90601 44.1763 15.4854 44.1763 23.318C44.1763 31.1507 50.7557 37.7301 58.5883 37.7301C66.4209 37.7301 73.0003 31.1507 73.0003 23.318C73.0003 15.4854 66.4209 8.90601 58.5883 8.90601ZM47.3093 23.318C47.3093 21.1249 47.9359 19.2451 48.8758 17.3652L64.8544 32.4039C62.9746 33.6571 60.7814 34.597 58.5883 34.597C52.3222 34.597 47.3093 29.5841 47.3093 23.318ZM67.0475 30.2108L50.7557 14.8588C52.6355 12.979 55.4553 12.0391 58.275 12.0391C64.5411 12.0391 69.554 17.0519 69.554 23.318C69.8673 25.8245 68.6141 28.3309 67.0475 30.2108Z" fill="#232323"/>
</svg>
