<svg width="79" height="65" viewBox="0 0 79 65" fill="none" xmlns="http://www.w3.org/2000/svg">
<path d="M42.3103 1.5813L47.5421 8.26642L46.0889 9.42905L49.5767 13.4983L50.7394 12.6263C50.7394 12.6263 52.774 12.6263 56.5525 18.7301C60.3311 24.5432 62.947 36.7509 62.947 36.7509L53.646 25.9965L48.7048 30.0657L47.8328 29.1938C47.8328 29.1938 10.338 61.1661 9.75667 61.4567C9.17536 61.7474 5.39681 64.9446 3.07155 62.038C0.746294 59.1315 3.65287 56.5156 3.65287 56.5156L42.0196 21.9273L40.857 20.474L43.1823 18.4394L40.2757 15.2422H39.4037L34.1719 8.84773L42.3103 1.5813Z" fill="#4CA6FD" stroke="black"/>
<path d="M40.2759 15.5329L42.6012 18.4394L40.2759 20.474L41.7292 22.5087L38.8226 24.8339L37.3694 26.2872L34.4628 28.6125L19.6393 41.4014L2.49046 56.2249C1.03717 57.3875 0.455857 60.0035 1.61849 61.4567L2.78112 62.91C3.94375 64.3633 6.55966 64.3633 8.01295 62.91L25.1617 48.0865L35.0441 39.6574L33.5908 38.2042L25.1617 45.4706L21.6739 41.4014L33.5908 31.2284L37.0787 35.2976L36.4974 35.8789L31.5562 40.2388L33.0095 41.692L37.9507 37.3322L40.5666 35.0069L43.4732 32.6817L44.9265 31.2284L47.833 28.9031L49.2863 30.3564L53.9368 26.2872C55.6808 27.7405 59.75 32.391 62.0752 37.6228C62.3659 38.2042 62.9472 38.4948 63.5285 38.2042C64.1098 37.9135 64.4005 37.3322 64.6912 36.7509L64.4005 34.7163C63.8192 28.6125 60.0406 19.3114 55.3901 14.0796L51.9022 10.0104L49.8676 11.7543L47.5424 8.84775L48.9957 7.68512L42.6012 1L33.5908 8.84775L39.6946 15.8235L40.2759 15.5329ZM23.9991 46.9239L7.43164 61.1661C6.26901 62.0381 4.81572 62.0381 3.65309 60.8754L3.36243 60.5848C2.49046 59.4221 2.49046 57.9689 3.65309 56.8062L20.2206 42.564L23.9991 46.9239ZM38.8226 34.1349L35.3348 30.0657L38.2413 27.7405L41.7292 31.8097L38.8226 34.1349ZM43.1825 30.3564L39.6946 26.2872L42.6012 23.9619L46.0891 28.0311L43.1825 30.3564ZM61.4939 34.4256C58.2967 28.9031 53.9368 25.1246 53.6462 24.8339L53.3555 24.2526L48.9957 28.0311L44.6358 23.09L53.0649 15.8235L53.3555 16.1142C57.1341 20.7647 60.9126 28.6125 61.4939 34.4256ZM51.0303 13.4983L51.9022 14.3702L43.4732 21.6367L43.1825 21.346L42.8918 20.7647L48.9957 15.5329L50.7396 14.0796L51.0303 13.4983ZM47.833 13.7889L43.7638 17.2768L41.4386 14.3702L45.5078 10.8824L47.833 13.7889ZM42.0199 4.19723L45.5078 8.26644L39.9853 12.917L36.4974 8.84775L42.0199 4.19723Z" fill="black" stroke="black"/>
<path d="M14.6646 50.0197L6.50098 57.0208L7.8255 58.5652L15.9891 51.5642L14.6646 50.0197Z" fill="black" stroke="black"/>
<path d="M18.7738 46.5646L15.9055 49.0244L17.23 50.5689L20.0983 48.109L18.7738 46.5646Z" fill="black" stroke="black"/>
<path d="M42.8348 38.1185L45.2593 40.543L48.8961 40.139L46.8756 42.9676L48.492 46.2002L45.2593 45.7961L42.4307 48.2207L42.0266 44.5839L38.7939 42.9676L42.0266 41.3512L42.8348 38.1185Z" fill="black"/>
<path d="M52.5234 48.9666L56.0591 52.5023L60.7735 51.3237L59.0056 56.038L61.3628 60.1631L56.0591 59.5738L53.1127 63.1095L51.9341 58.3952L47.8091 56.6273L51.9341 54.2702L52.5234 48.9666Z" fill="black"/>
<path d="M71.5594 2.94092L72.4253 9.0022L78.4866 11.5999L73.2912 14.1976V21.1247L68.0959 16.7953L62.0346 18.5271L64.6323 12.4658L61.1687 7.2704L67.23 8.1363L71.5594 2.94092Z" fill="black"/>
</svg>
