<svg width="67" height="62" viewBox="0 0 67 62" fill="none" xmlns="http://www.w3.org/2000/svg">
<path d="M3.37834 49.1382C5.46773 47.3087 17.3676 34.55 17.3676 34.55C17.3676 34.55 17.1875 31.2617 18.8926 29.4441C20.5857 27.6386 28.1988 19.1607 28.9073 18.7661C28.1748 17.953 28.3309 14.7842 28.3309 14.7842C28.3309 14.7842 29.0393 14.6288 30.2762 14.7842C31.501 7.76517 41.9479 -5.06523 55.4688 5.21823C61.8811 11.0654 60.2 20.5358 60.2 20.5358C60.2 20.5358 61.2687 20.7749 62.0372 20.9184C59.9598 29.4441 51.7104 32.5053 51.7104 32.5053L64.3547 44.7019L60.3561 48.2533L51.23 38.9384C51.23 38.9384 47.3275 34.275 46.583 33.2227C44.2774 34.2152 42.2601 33.2227 42.2601 33.2227L33.4222 42.7409L27.9346 44.7019C27.9346 44.7019 14.4857 56.8627 12.4083 59.0988C10.3309 61.3348 9.0461 59.5531 9.0461 59.5531L6.16419 57.7834L4.0628 59.5531L2.44172 57.903L4.42303 55.5952L1.75727 52.4863C1.75727 52.4863 1.28896 50.9677 3.37834 49.1382Z" fill="#4CA6FD"/>
<path d="M22.7347 44.8932L11.7835 55.0571C11.4953 55.3321 11.4713 55.7865 11.7474 56.0735C11.8915 56.2289 12.0837 56.3007 12.2758 56.3007C12.4559 56.3007 12.624 56.2409 12.7681 56.1093L23.7194 45.9454C24.0076 45.6704 24.0316 45.216 23.7554 44.9291C23.4792 44.6421 23.0229 44.6301 22.7347 44.8932Z" fill="black" stroke="black"/>
<path d="M34.1785 21.1216C33.8903 20.8466 33.434 20.8586 33.1579 21.1455C32.8817 21.4325 32.8937 21.8869 33.1819 22.1619L35.5835 24.4697C35.7276 24.6012 35.9077 24.673 36.0878 24.673C36.2799 24.673 36.46 24.6012 36.6041 24.4578C36.8803 24.1708 36.8683 23.7164 36.5801 23.4414L34.1785 21.1216Z" fill="black" stroke="black"/>
<path d="M37.5048 22.5805C37.6489 22.724 37.829 22.7838 38.0092 22.7838C38.1893 22.7838 38.3814 22.712 38.5255 22.5685C38.8017 22.2815 38.8017 21.8272 38.5135 21.5521L36.1599 19.2324C35.8717 18.9574 35.4154 18.9574 35.1393 19.2443C34.8631 19.5313 34.8631 19.9857 35.1513 20.2607L37.5048 22.5805Z" fill="black" stroke="black"/>
<path d="M41.8394 26.8852C41.9835 27.0168 42.1636 27.0885 42.3437 27.0885C42.5359 27.0885 42.716 27.0168 42.8601 26.8733C43.1363 26.5863 43.1243 26.1319 42.8361 25.8569L40.1463 23.2741C39.8581 22.9991 39.4018 23.011 39.1256 23.298C38.8494 23.585 38.8615 24.0394 39.1496 24.3144L41.8394 26.8852Z" fill="black" stroke="black"/>
<path d="M40.8427 27.6743L38.3811 25.2828C38.0929 25.0078 37.6366 25.0078 37.3604 25.2948C37.0843 25.5817 37.0843 26.0361 37.3725 26.3111L39.8341 28.7027C39.9782 28.8342 40.1583 28.9059 40.3384 28.9059C40.5305 28.9059 40.7106 28.8342 40.8547 28.6907C41.1309 28.4037 41.1309 27.9493 40.8427 27.6743Z" fill="black" stroke="black"/>
<path d="M65.6395 43.279C65.3513 43.004 64.895 43.004 64.6189 43.2909L64.2466 43.6736C62.5655 41.9756 55.9851 35.3751 54.232 33.8804C53.8597 33.5695 53.3914 33.1988 52.8511 32.8162C55.2767 31.74 57.4741 30.0779 59.2633 27.9494C61.0285 25.8449 62.2893 23.4056 62.8177 21.0739L62.9858 20.3445L60.8484 19.9499C61.0165 18.9694 61.3527 16.2072 60.6803 13.0145C59.9117 9.37944 57.6062 4.51274 51.0619 1.9897L51.0259 1.97775C41.2154 -1.13121 35.6197 3.91486 33.17 7.20318C31.4169 9.54685 30.2041 12.4525 30.108 14.2461L27.9946 13.8276L27.8985 14.5929C27.8865 14.7005 27.5743 17.1638 27.8505 19.352C27.2501 19.9618 26.4816 20.7152 25.7011 21.4924C23.3115 23.8719 20.3335 26.8374 19.3129 28.0332C18.1961 29.3365 17.6678 31.0106 17.2355 32.3618C17.0073 33.0792 16.7672 33.8206 16.551 34.0837C15.7225 35.0761 4.11078 47.6674 2.30959 49.2936L2.26156 49.3414C1.37297 50.2382 0.9647 51.147 1.00072 51.996C1.02474 52.6297 1.31293 53.2037 1.81726 53.6461C1.88931 53.7179 2.56176 54.3755 3.6905 55.4876L1.34895 57.8791L4.11078 60.5815L6.50037 58.2617C7.1488 58.9074 7.85726 59.601 8.60176 60.3423L8.64979 60.3902C8.94999 60.6891 9.50235 61 10.2108 61C10.8472 61 11.6037 60.7489 12.4083 59.9956C13.5731 58.9553 27.4182 46.089 27.9466 45.5987C28.1147 45.4911 28.7631 45.2639 29.2915 45.0726C30.7804 44.5226 32.8338 43.8051 34.2628 42.6811C34.9592 42.155 39.6303 37.5513 43.0406 34.0597C43.8571 34.2032 44.6857 34.275 45.5142 34.275C45.7904 34.275 46.0546 34.263 46.3307 34.2511V34.1554C47.7957 36.1284 49.6089 38.5558 50.0172 39.0819C50.6656 39.9309 57.7263 46.9499 59.4074 48.624L59.0712 48.9588C58.795 49.2458 58.795 49.7002 59.0832 49.9752C59.2273 50.1067 59.4074 50.1785 59.5875 50.1785C59.7797 50.1785 59.9598 50.1067 60.1039 49.9632L65.6636 44.2834C65.9277 44.0084 65.9277 43.554 65.6395 43.279ZM51.4581 31.8356C49.9451 30.7834 48.3361 29.7311 47.4595 29.1572C50.6776 24.8644 52.2026 20.189 52.2747 19.9738L52.3227 19.8183L61.2086 21.4685C60.0919 25.2471 56.7056 29.8627 51.4581 31.8356ZM30.156 18.9933C35.1153 14.1744 40.7951 12.0101 42.3321 11.4959L50.1133 19.2922L50.7737 19.9499C50.2694 21.3369 48.4321 26.0004 45.178 29.7192C44.5416 30.4486 43.3047 31.7519 41.8518 33.2347L28.9072 20.2727C29.5436 19.639 29.9639 19.1966 30.156 18.9933ZM32.2334 11.6753C33.0019 9.786 34.2027 7.9565 35.6076 6.50964C38.2854 3.74746 43.0526 0.961357 50.5455 3.32894C55.2887 5.1704 58.2186 8.50654 59.2393 13.2537C59.8637 16.1713 59.5635 18.7661 59.4074 19.6749L50.9538 18.0965L42.7284 9.84578L42.3201 9.96536C42.0919 10.0371 37.721 11.3285 32.9179 14.7842C32.8938 14.7723 32.8698 14.7723 32.8458 14.7603L31.5009 14.5092C31.5009 14.0548 31.669 13.0743 32.2334 11.6753ZM29.2194 15.5256L31.4049 15.9561C30.6484 16.5659 29.8919 17.2236 29.1594 17.953C29.1234 17.0203 29.1714 16.1354 29.2194 15.5256ZM4.11078 58.5726L3.39031 57.8671L4.72319 56.504C4.96335 56.7431 5.21551 56.9942 5.47969 57.2573L4.11078 58.5726ZM33.3982 41.5451L33.3862 41.5571C32.1373 42.5376 30.2161 43.2192 28.8111 43.7094C27.7424 44.0921 27.2501 44.2715 26.9739 44.5226C26.2414 45.2041 12.4923 57.9867 11.4356 58.9194L11.4116 58.9314C10.3069 59.9836 9.68247 59.3857 9.65846 59.3618L9.61043 59.314C7.13679 56.8627 2.95802 52.7254 2.78991 52.5819C2.57377 52.3906 2.46569 52.1754 2.45369 51.9243C2.42967 51.4818 2.72987 50.9198 3.28223 50.31C5.27555 48.5044 16.7792 35.9969 17.6317 34.9805C18.04 34.5022 18.2802 33.7369 18.5924 32.7683C18.9766 31.5487 19.469 30.0301 20.3936 28.9419C21.3782 27.794 24.3322 24.8525 26.6977 22.4849C27.142 22.0424 27.5383 21.6478 27.8985 21.2891L40.8311 34.2511C37.613 37.5155 33.8785 41.1745 33.3982 41.5451ZM44.2774 32.7803C44.4815 32.577 44.6736 32.3737 44.8538 32.1824C44.9979 32.3737 45.154 32.589 45.3461 32.8401C44.9859 32.8281 44.6256 32.8162 44.2774 32.7803ZM51.1459 38.209C50.5696 37.4676 46.9912 32.6607 45.8504 31.1182C46.0065 30.9508 46.1386 30.7953 46.2587 30.6638C46.3668 30.5442 46.4748 30.4247 46.5709 30.2931C47.9758 31.2019 51.7343 33.6651 53.2954 34.9805C55.0005 36.4154 61.6049 43.0637 63.2379 44.7019L60.4041 47.5956C56.8377 44.0562 51.6142 38.8188 51.1459 38.209Z" fill="black" stroke="black"/>
<path d="M37.3132 8.99682C37.4933 8.99682 37.6734 8.93703 37.8055 8.8055C42.2484 4.60841 49.0329 4.59645 53.2477 8.79354C53.5239 9.06856 53.9802 9.06856 54.2684 8.79354C54.5446 8.51852 54.5446 8.06413 54.2684 7.77715C51.9629 5.48131 48.9008 4.22577 45.6347 4.22577C45.6227 4.22577 45.6107 4.22577 45.5986 4.22577C42.3325 4.23773 39.2224 5.49327 36.8088 7.76519C36.5206 8.04022 36.5086 8.4946 36.7848 8.78158C36.9289 8.91311 37.121 8.99682 37.3132 8.99682Z" fill="black" stroke="black"/>
</svg>
