<svg width="43" height="64" viewBox="0 0 43 64" fill="none" xmlns="http://www.w3.org/2000/svg">
<path d="M14.8212 63C7.19874 63 1 56.8013 1 49.1788C1 44.4416 3.45682 40.0193 7.43812 37.4869V8.38305C7.43812 4.31355 10.7517 1 14.8212 1C18.8907 1 22.2042 4.31355 22.2042 8.38305V37.4869C26.1855 40.0067 28.6423 44.4416 28.6423 49.1788C28.6549 56.8013 22.4436 63 14.8212 63ZM14.8212 2.88986C11.7848 2.88986 9.32798 5.35928 9.32798 8.38305V38.5578L8.86182 38.835C5.18289 40.9642 2.88986 44.9329 2.88986 49.1788C2.88986 55.7555 8.24446 61.1101 14.8212 61.1101C21.3979 61.1101 26.7525 55.7555 26.7525 49.1788C26.7525 44.9329 24.4595 40.9642 20.7805 38.835L20.3144 38.5578V8.38305C20.327 5.35928 17.8575 2.88986 14.8212 2.88986Z" fill="black" stroke="black"/>
<path d="M40.5866 13.6242H29.8522C29.3356 13.6242 28.9072 13.1959 28.9072 12.6793C28.9072 12.1627 29.3356 11.7344 29.8522 11.7344H40.5866C41.1031 11.7344 41.5315 12.1627 41.5315 12.6793C41.5315 13.1959 41.1157 13.6242 40.5866 13.6242Z" fill="black" stroke="black"/>
<path d="M40.5866 22.2168H29.8522C29.3356 22.2168 28.9072 21.7884 28.9072 21.2718C28.9072 20.7553 29.3356 20.3269 29.8522 20.3269H40.5866C41.1031 20.3269 41.5315 20.7553 41.5315 21.2718C41.5315 21.7884 41.1157 22.2168 40.5866 22.2168Z" fill="black" stroke="black"/>
<path d="M40.5866 30.797H29.8522C29.3356 30.797 28.9072 30.3686 28.9072 29.852C28.9072 29.3355 29.3356 28.9071 29.8522 28.9071H40.5866C41.1031 28.9071 41.5315 29.3355 41.5315 29.852C41.5315 30.3686 41.1157 30.797 40.5866 30.797Z" fill="black" stroke="black"/>
<path d="M16.9764 43.106V25.5555C16.9764 24.3712 16.0189 23.4137 14.8346 23.4137C13.6503 23.4137 12.6928 24.3712 12.6928 25.5555V43.0934C10.1856 43.9754 8.39648 46.3566 8.39648 49.1662C8.39648 52.7191 11.2817 55.6043 14.8346 55.6043C18.3875 55.6043 21.2727 52.7191 21.2727 49.1662C21.2727 46.3692 19.4711 43.988 16.9764 43.106Z" fill="#4CA6FD" stroke="black"/>
<path d="M14.821 56.5618C10.7515 56.5618 7.43799 53.2483 7.43799 49.1788C7.43799 46.281 9.13886 43.673 11.7343 42.4761V25.5555C11.7343 23.8546 13.1202 22.4688 14.821 22.4688C16.5219 22.4688 17.9078 23.8546 17.9078 25.5555V42.4635C20.5032 43.6604 22.2041 46.281 22.2041 49.1662C22.2167 53.2483 18.9031 56.5618 14.821 56.5618ZM14.821 24.3586C14.1533 24.3586 13.6241 24.9004 13.6241 25.5555V43.7612L12.9942 43.988C10.8019 44.7565 9.32785 46.8479 9.32785 49.1662C9.32785 52.2025 11.7973 54.6594 14.821 54.6594C17.8448 54.6594 20.3142 52.1899 20.3142 49.1662C20.3142 46.8353 18.8401 44.7565 16.6479 43.988L16.018 43.7612V25.5555C16.0306 24.9004 15.4888 24.3586 14.821 24.3586Z" fill="black" stroke="black"/>
</svg>
