<svg width="142" height="56" viewBox="0 0 142 56" fill="none" xmlns="http://www.w3.org/2000/svg">
<path d="M1.00001 55.0001H141V1.00006H23.5C8 1.00006 1.00001 13 1.00001 25.0001V55.0001Z" stroke="#1361AD" stroke-width="1.5"/>
<path d="M1 45.5L11 55" stroke="#1361AD" stroke-width="1.5"/>
<path d="M1 33L23.5 55" stroke="#1361AD" stroke-width="1.5"/>
<path d="M1.5 20.5L36.5 55" stroke="#1361AD" stroke-width="1.5"/>
<path d="M5 10.5L49.5 55" stroke="#1361AD" stroke-width="1.5"/>
<path d="M11 4L62.5 55" stroke="#1361AD" stroke-width="1.5"/>
<path d="M21 1L75.5 55" stroke="#1361AD" stroke-width="1.5"/>
<path d="M34 1L88.5 55" stroke="#1361AD" stroke-width="1.5"/>
<path d="M47 1L101 55" stroke="#1361AD" stroke-width="1.5"/>
<path d="M60 1L114 55" stroke="#1361AD" stroke-width="1.5"/>
<path d="M73 1L127.5 55" stroke="#1361AD" stroke-width="1.5"/>
<path d="M85.5 1L139.5 54.5" stroke="#1361AD" stroke-width="1.5"/>
<path d="M99 1L141 43" stroke="#1361AD" stroke-width="1.5"/>
<path d="M111.5 1L141 30.5" stroke="#1361AD" stroke-width="1.5"/>
<path d="M124.5 1L141 17.5" stroke="#1361AD" stroke-width="1.5"/>
</svg>
