<svg width="106" height="43" viewBox="0 0 106 43" fill="none" xmlns="http://www.w3.org/2000/svg">
<path d="M104.5 1H31.5V16H25C12 16 0.999912 29 1 41.5H104.5V1Z" stroke="#1361AD" stroke-width="1.5"/>
<path d="M2 35L8.5 41.5" stroke="#1361AD" stroke-width="1.5"/>
<path d="M5 28.5L18 41.5" stroke="#1361AD" stroke-width="1.5"/>
<path d="M9 23L27.5 41.5" stroke="#1361AD" stroke-width="1.5"/>
<path d="M14.5 19L37 41.5" stroke="#1361AD" stroke-width="1.5"/>
<path d="M21.5 16.5L47 41.5" stroke="#1361AD" stroke-width="1.5"/>
<path d="M30.5 16L56.5 41.5" stroke="#1361AD" stroke-width="1.5"/>
<path d="M31.5 7.5L66 41.5" stroke="#1361AD" stroke-width="1.5"/>
<path d="M35 1L75.5 41.5" stroke="#1361AD" stroke-width="1.5"/>
<path d="M44.5 1L85.5 41.5" stroke="#1361AD" stroke-width="1.5"/>
<path d="M54 1L95 41.5" stroke="#1361AD" stroke-width="1.5"/>
<path d="M64 1L104.5 41.5" stroke="#1361AD" stroke-width="1.5"/>
<path d="M73.5 1L104.5 32" stroke="#1361AD" stroke-width="1.5"/>
<path d="M83 1L104.5 22" stroke="#1361AD" stroke-width="1.5"/>
<path d="M93 1L104.5 12.5" stroke="#1361AD" stroke-width="1.5"/>
</svg>
