<svg width="102" height="41" viewBox="0 0 102 41" fill="none" xmlns="http://www.w3.org/2000/svg">
<path d="M1 23L18 39.5" stroke="#1361AD" stroke-width="1.5"/>
<path d="M1.5 14.5L27 39.5" stroke="#1361AD" stroke-width="1.5"/>
<path d="M4.5 8.5L36.5 39.5" stroke="#1361AD" stroke-width="1.5"/>
<path d="M9.5 4L45.5 39.5" stroke="#1361AD" stroke-width="1.5"/>
<path d="M16 1.5L54.5 39.5" stroke="#1361AD" stroke-width="1.5"/>
<path d="M25 1L63.5 39.5" stroke="#1361AD" stroke-width="1.5"/>
<path d="M34 1L73 39.5" stroke="#1361AD" stroke-width="1.5"/>
<path d="M43 1L82 39.5" stroke="#1361AD" stroke-width="1.5"/>
<path d="M52 1L91 39.5" stroke="#1361AD" stroke-width="1.5"/>
<path d="M61 1L100.5 39.5" stroke="#1361AD" stroke-width="1.5"/>
<path d="M70.5 1L101 31" stroke="#1361AD" stroke-width="1.5"/>
<path d="M79.5 1L101 22" stroke="#1361AD" stroke-width="1.5"/>
<path d="M88.5 1L101 13" stroke="#1361AD" stroke-width="1.5"/>
<path d="M19.5 1H101V39.5H19.5C19.5 39.5 1.00007 39 1 20C0.99993 1 19.5 1 19.5 1Z" stroke="#1361AD" stroke-width="1.5"/>
</svg>
