<svg width="105" height="56" viewBox="0 0 105 56" fill="none" xmlns="http://www.w3.org/2000/svg">
<path d="M1.5 54.5H104V1.5H3.5C1.94558 1.72136 1.55462 2.31081 1.5 4V54.5Z" stroke="#1361AD" stroke-width="1.5"/>
<path d="M28.5 54.5V28H104" stroke="#1361AD" stroke-width="1.5"/>
<path d="M22.5 54.5L28.5 48.5" stroke="#1361AD" stroke-width="1.5"/>
<path d="M13 54.5L28.5 39" stroke="#1361AD" stroke-width="1.5"/>
<path d="M3.5 54.5L28.5 30" stroke="#1361AD" stroke-width="1.5"/>
<path d="M1.5 47L24.5 24.5" stroke="#1361AD" stroke-width="1.5"/>
<path d="M1.5 37.5L19.5 20" stroke="#1361AD" stroke-width="1.5"/>
<path d="M1.5 28L14.5 15" stroke="#1361AD" stroke-width="1.5"/>
<path d="M1.5 19L10 10.5" stroke="#1361AD" stroke-width="1.5"/>
<path d="M1.5 9.5L5.5 6" stroke="#1361AD" stroke-width="1.5"/>
<path d="M2 2.5L28.5 28.5" stroke="#1361AD" stroke-width="1.5"/>
<path d="M28.5 44L39.5 54.5" stroke="#1361AD" stroke-width="1.5"/>
<path d="M28.5 34.5L48.5 54.5" stroke="#1361AD" stroke-width="1.5"/>
<path d="M31.5 28L58.5 54.5" stroke="#1361AD" stroke-width="1.5"/>
<path d="M41 28L67.5 54.5" stroke="#1361AD" stroke-width="1.5"/>
<path d="M50.5 28L77.5 54.5" stroke="#1361AD" stroke-width="1.5"/>
<path d="M60 28L86.5 54.5" stroke="#1361AD" stroke-width="1.5"/>
<path d="M69.5 28L96.5 54.5" stroke="#1361AD" stroke-width="1.5"/>
<path d="M79 28L104 52.5" stroke="#1361AD" stroke-width="1.5"/>
<path d="M88.5 28L104 43.5" stroke="#1361AD" stroke-width="1.5"/>
<path d="M98 28L104 34" stroke="#1361AD" stroke-width="1.5"/>
<path d="M10.5 1.5L37 28" stroke="#1361AD" stroke-width="1.5"/>
<path d="M19.5 1.5L46.5 28" stroke="#1361AD" stroke-width="1.5"/>
<path d="M29 1.5L56 28" stroke="#1361AD" stroke-width="1.5"/>
<path d="M38.5 1.5L65.5 28" stroke="#1361AD" stroke-width="1.5"/>
<path d="M48 1.5L75 28" stroke="#1361AD" stroke-width="1.5"/>
<path d="M57.5 1.5L84.5 28" stroke="#1361AD" stroke-width="1.5"/>
<path d="M67 1.5L94 28" stroke="#1361AD" stroke-width="1.5"/>
<path d="M76.5 1.5L103 28" stroke="#1361AD" stroke-width="1.5"/>
<path d="M86 1.5L104 19.5" stroke="#1361AD" stroke-width="1.5"/>
<path d="M95.5 1.5L104 10" stroke="#1361AD" stroke-width="1.5"/>
</svg>
