<svg width="107" height="56" viewBox="0 0 107 56" fill="none" xmlns="http://www.w3.org/2000/svg">
<path d="M1 55H106V1H50.5C48.5 15.5 41.0632 23.0766 25.5 25V29H22.5C8 32 1.48545 40.0588 1 55Z" stroke="#1361AD" stroke-width="1.5"/>
<path d="M2 48.5L8.5 55" stroke="#1361AD" stroke-width="1.5"/>
<path d="M4 41.5L18 55" stroke="#1361AD" stroke-width="1.5"/>
<path d="M8.5 35.5L28 55" stroke="#1361AD" stroke-width="1.5"/>
<path d="M14 32L37.5 55" stroke="#1361AD" stroke-width="1.5"/>
<path d="M21.5 29.5L47.5 55" stroke="#1361AD" stroke-width="1.5"/>
<path d="M25.5 27.5H106" stroke="#1361AD" stroke-width="1.5"/>
<path d="M29 27.5L57 55" stroke="#1361AD" stroke-width="1.5"/>
<path d="M39 27.5L67 55" stroke="#1361AD" stroke-width="1.5"/>
<path d="M48.5 27.5L76.5 55" stroke="#1361AD" stroke-width="1.5"/>
<path d="M58.5 27.5L86.5 55" stroke="#1361AD" stroke-width="1.5"/>
<path d="M68 27.5L95.5 54.5" stroke="#1361AD" stroke-width="1.5"/>
<path d="M78 27.5L105.5 55" stroke="#1361AD" stroke-width="1.5"/>
<path d="M87.5 27.5L106 46" stroke="#1361AD" stroke-width="1.5"/>
<path d="M97 27.5L106 36" stroke="#1361AD" stroke-width="1.5"/>
<path d="M38.5 21.5L44 27" stroke="#1361AD" stroke-width="1.5"/>
<path d="M43.5 17L54.5 27.5" stroke="#1361AD" stroke-width="1.5"/>
<path d="M47.5 11.5L64 27.5" stroke="#1361AD" stroke-width="1.5"/>
<path d="M50 4.5L74 27.5" stroke="#1361AD" stroke-width="1.5"/>
<path d="M57 1L83.5 27.5" stroke="#1361AD" stroke-width="1.5"/>
<path d="M66 1L93.5 27.5" stroke="#1361AD" stroke-width="1.5"/>
<path d="M76 1L103 27.5" stroke="#1361AD" stroke-width="1.5"/>
<path d="M86 1L106 21" stroke="#1361AD" stroke-width="1.5"/>
<path d="M95.5 1L106 11.5" stroke="#1361AD" stroke-width="1.5"/>
</svg>
