<svg width="18" height="18" viewBox="0 0 18 18" fill="none" xmlns="http://www.w3.org/2000/svg">
<path d="M12.8737 12.002L16.9674 14.0784C16.8394 14.9333 16.5175 15.5717 16.0225 16.0665C15.4358 16.653 14.5928 17 13.4218 17C12.2478 17 10.9094 16.6781 9.41729 15.9425C7.92857 15.2086 6.52652 14.182 5.19156 12.8475C4.1997 11.856 3.37356 10.7824 2.69148 9.64597C2.01029 8.51102 1.54639 7.4361 1.26681 6.42057C1.00992 5.43004 0.939978 4.51356 1.05077 3.68116C1.15766 2.89946 1.44896 2.3026 1.8839 1.86781C2.27681 1.47503 2.91924 1.16799 3.98727 1.02791L6.21301 5.13405L4.43884 6.88724L4.42132 6.90455L4.40468 6.92269C4.18315 7.16429 3.98841 7.48827 3.94701 7.89389C3.90579 8.29769 4.03002 8.64959 4.19714 8.9242C4.80354 9.9489 5.50965 10.8694 6.34048 11.6782C7.18364 12.5428 8.10026 13.2713 9.06798 13.8612L9.0801 13.8686L9.09244 13.8756C9.38477 14.0426 9.75091 14.1569 10.1597 14.0985C10.5538 14.0423 10.8611 13.8435 11.086 13.6247L12.8737 12.002Z" fill="white" stroke="#1673CE" stroke-width="2"/>
</svg>
